<?xml version="1.0" encoding="UTF-8" standalone="no"?>
<!-- Created with Inkscape (http://www.inkscape.org/) -->

<svg
   width="2048"
   height="2048"
   viewBox="0 0 541.86668 541.86668"
   version="1.1"
   id="svg1"
   xml:space="preserve"
   inkscape:version="1.4.2 (f4327f4, 2025-05-13)"
   sodipodi:docname="ubuntu-touch.svg"
   xmlns:inkscape="http://www.inkscape.org/namespaces/inkscape"
   xmlns:sodipodi="http://sodipodi.sourceforge.net/DTD/sodipodi-0.dtd"
   xmlns="http://www.w3.org/2000/svg"
   xmlns:svg="http://www.w3.org/2000/svg"><sodipodi:namedview
     id="namedview1"
     pagecolor="#505050"
     bordercolor="#eeeeee"
     borderopacity="1"
     inkscape:showpageshadow="false"
     inkscape:pageopacity="0"
     inkscape:pagecheckerboard="true"
     inkscape:deskcolor="#1d1d1b"
     inkscape:document-units="mm"
     inkscape:zoom="0.34876894"
     inkscape:cx="626.48928"
     inkscape:cy="1072.3432"
     inkscape:window-width="1920"
     inkscape:window-height="1001"
     inkscape:window-x="-9"
     inkscape:window-y="-9"
     inkscape:window-maximized="1"
     inkscape:current-layer="g192"
     inkscape:clip-to-page="true"
     borderlayer="false"
     showborder="false"
     showguides="false"><sodipodi:guide
       position="33.8667,0"
       orientation="541.867,0"
       id="guide1"
       inkscape:locked="false" /><sodipodi:guide
       position="67.7333,0"
       orientation="541.867,0"
       id="guide2"
       inkscape:locked="false" /><sodipodi:guide
       position="101.6,0"
       orientation="541.867,0"
       id="guide3"
       inkscape:locked="false" /><sodipodi:guide
       position="135.467,0"
       orientation="541.867,0"
       id="guide4"
       inkscape:locked="false" /><sodipodi:guide
       position="169.333,0"
       orientation="541.867,0"
       id="guide5"
       inkscape:locked="false" /><sodipodi:guide
       position="203.2,0"
       orientation="541.867,0"
       id="guide6"
       inkscape:locked="false" /><sodipodi:guide
       position="237.067,0"
       orientation="541.867,0"
       id="guide7"
       inkscape:locked="false" /><sodipodi:guide
       position="270.933,0"
       orientation="-1,0"
       id="guide8"
       inkscape:locked="false"
       inkscape:label=""
       inkscape:color="rgb(224,27,36)" /><sodipodi:guide
       position="304.8,0"
       orientation="541.867,0"
       id="guide9"
       inkscape:locked="false" /><sodipodi:guide
       position="338.667,0"
       orientation="541.867,0"
       id="guide10"
       inkscape:locked="false" /><sodipodi:guide
       position="372.533,0"
       orientation="541.867,0"
       id="guide11"
       inkscape:locked="false" /><sodipodi:guide
       position="406.4,0"
       orientation="541.867,0"
       id="guide12"
       inkscape:locked="false" /><sodipodi:guide
       position="440.267,0"
       orientation="541.867,0"
       id="guide13"
       inkscape:locked="false" /><sodipodi:guide
       position="474.133,0"
       orientation="541.867,0"
       id="guide14"
       inkscape:locked="false" /><sodipodi:guide
       position="508,0"
       orientation="541.867,0"
       id="guide15"
       inkscape:locked="false" /><sodipodi:guide
       position="0,33.8667"
       orientation="0,541.867"
       id="guide16"
       inkscape:locked="false" /><sodipodi:guide
       position="0,67.7333"
       orientation="0,541.867"
       id="guide17"
       inkscape:locked="false" /><sodipodi:guide
       position="0,101.6"
       orientation="0,541.867"
       id="guide18"
       inkscape:locked="false" /><sodipodi:guide
       position="0,135.467"
       orientation="0,541.867"
       id="guide19"
       inkscape:locked="false" /><sodipodi:guide
       position="0,169.333"
       orientation="0,541.867"
       id="guide20"
       inkscape:locked="false" /><sodipodi:guide
       position="0,203.2"
       orientation="0,541.867"
       id="guide21"
       inkscape:locked="false" /><sodipodi:guide
       position="0,237.067"
       orientation="0,541.867"
       id="guide22"
       inkscape:locked="false" /><sodipodi:guide
       position="0,270.933"
       orientation="0,1"
       id="guide23"
       inkscape:locked="false"
       inkscape:label=""
       inkscape:color="rgb(224,27,36)" /><sodipodi:guide
       position="0,304.8"
       orientation="0,541.867"
       id="guide24"
       inkscape:locked="false" /><sodipodi:guide
       position="0,338.667"
       orientation="0,541.867"
       id="guide25"
       inkscape:locked="false" /><sodipodi:guide
       position="0,372.533"
       orientation="0,541.867"
       id="guide26"
       inkscape:locked="false" /><sodipodi:guide
       position="0,406.4"
       orientation="0,541.867"
       id="guide27"
       inkscape:locked="false" /><sodipodi:guide
       position="0,440.267"
       orientation="0,541.867"
       id="guide28"
       inkscape:locked="false" /><sodipodi:guide
       position="0,474.133"
       orientation="0,541.867"
       id="guide29"
       inkscape:locked="false" /><sodipodi:guide
       position="0,508"
       orientation="0,541.867"
       id="guide30"
       inkscape:locked="false" /><sodipodi:guide
       position="0,541.86668"
       orientation="0.70710678,0.70710678"
       id="guide35"
       inkscape:locked="false"
       inkscape:label=""
       inkscape:color="rgb(246,211,45)" /><sodipodi:guide
       position="135.467,135.467"
       orientation="0.70710678,0.70710678"
       id="guide36"
       inkscape:locked="false"
       inkscape:label=""
       inkscape:color="rgb(34,231,36)" /><sodipodi:guide
       position="406.4,135.46668"
       orientation="-0.70710678,0.70710678"
       id="guide37"
       inkscape:locked="false"
       inkscape:label=""
       inkscape:color="rgb(34,231,36)" /><sodipodi:guide
       position="270.933,270.933"
       orientation="-0.70710678,0.70710678"
       id="guide38"
       inkscape:locked="false"
       inkscape:label=""
       inkscape:color="rgb(246,211,45)" /><sodipodi:guide
       position="406.4,406.4"
       orientation="0.70710678,0.70710678"
       id="guide39"
       inkscape:label=""
       inkscape:locked="false"
       inkscape:color="rgb(34,231,36)" /><sodipodi:guide
       position="135.467,406.39968"
       orientation="-0.70710678,0.70710678"
       id="guide40"
       inkscape:label=""
       inkscape:locked="false"
       inkscape:color="rgb(34,231,36)" /><sodipodi:guide
       position="0,541.86668"
       orientation="0,1"
       id="guide41"
       inkscape:locked="false"
       inkscape:label=""
       inkscape:color="rgb(255,255,255)" /><sodipodi:guide
       position="541.86668,541.86668"
       orientation="-1,0"
       id="guide42"
       inkscape:locked="false"
       inkscape:label=""
       inkscape:color="rgb(255,255,255)" /><sodipodi:guide
       position="541.86668,-3.3333335e-06"
       orientation="0,1"
       id="guide43"
       inkscape:locked="false"
       inkscape:label=""
       inkscape:color="rgb(255,255,255)" /><sodipodi:guide
       position="0,0"
       orientation="-1,0"
       id="guide44"
       inkscape:locked="false"
       inkscape:label=""
       inkscape:color="rgb(255,255,255)" /></sodipodi:namedview><defs
     id="defs1"><linearGradient
       id="linearGradient5460"
       inkscape:swatch="gradient"><stop
         style="stop-color:#e6e6e6;stop-opacity:1"
         offset="0"
         id="stop5462" /><stop
         style="stop-color:#ffffff;stop-opacity:1"
         offset="1"
         id="stop5464" /></linearGradient><linearGradient
       id="linearGradient5476"
       inkscape:swatch="solid"><stop
         style="stop-color:#772953;stop-opacity:1;"
         offset="0"
         id="stop5478" /></linearGradient><clipPath
       id="clipPath18"
       clipPathUnits="userSpaceOnUse"><path
         id="path16"
         d="M 0,2500 H 2500 V 0 H 0 Z"
         inkscape:connector-curvature="0" /></clipPath><clipPath
       id="clipPath30"
       clipPathUnits="userSpaceOnUse"><path
         id="path28"
         d="M 0,2500 H 2500 V 0 H 0 Z"
         inkscape:connector-curvature="0" /></clipPath><clipPath
       id="clipPath42"
       clipPathUnits="userSpaceOnUse"><path
         id="path40"
         d="M 0,2500 H 2500 V 0 H 0 Z"
         inkscape:connector-curvature="0" /></clipPath><clipPath
       id="clipPath54"
       clipPathUnits="userSpaceOnUse"><path
         id="path52"
         d="M 0,2500 H 2500 V 0 H 0 Z"
         inkscape:connector-curvature="0" /></clipPath><clipPath
       id="clipPath66"
       clipPathUnits="userSpaceOnUse"><path
         id="path64"
         d="M 0,2500 H 2500 V 0 H 0 Z"
         inkscape:connector-curvature="0" /></clipPath><clipPath
       id="clipPath78"
       clipPathUnits="userSpaceOnUse"><path
         id="path76"
         d="M 0,2500 H 2500 V 0 H 0 Z"
         inkscape:connector-curvature="0" /></clipPath><clipPath
       id="clipPath90"
       clipPathUnits="userSpaceOnUse"><path
         id="path88"
         d="M 0,2500 H 2500 V 0 H 0 Z"
         inkscape:connector-curvature="0" /></clipPath><clipPath
       id="clipPath102"
       clipPathUnits="userSpaceOnUse"><path
         id="path100"
         d="M 0,2500 H 2500 V 0 H 0 Z"
         inkscape:connector-curvature="0" /></clipPath><clipPath
       id="clipPath114"
       clipPathUnits="userSpaceOnUse"><path
         id="path112"
         d="M 0,2500 H 2500 V 0 H 0 Z"
         inkscape:connector-curvature="0" /></clipPath><clipPath
       id="clipPath126"
       clipPathUnits="userSpaceOnUse"><path
         id="path124"
         d="M 0,2500 H 2500 V 0 H 0 Z"
         inkscape:connector-curvature="0" /></clipPath><clipPath
       id="clipPath138"
       clipPathUnits="userSpaceOnUse"><path
         id="path136"
         d="M 0,2500 H 2500 V 0 H 0 Z"
         inkscape:connector-curvature="0" /></clipPath><clipPath
       id="clipPath162"
       clipPathUnits="userSpaceOnUse"><path
         id="path160"
         d="M 0,2500 H 2500 V 0 H 0 Z"
         inkscape:connector-curvature="0" /></clipPath><clipPath
       id="clipPath174"
       clipPathUnits="userSpaceOnUse"><path
         id="path172"
         d="M 0,2500 H 2500 V 0 H 0 Z"
         inkscape:connector-curvature="0" /></clipPath><clipPath
       id="clipPath186"
       clipPathUnits="userSpaceOnUse"><path
         id="path184"
         d="M 0,2500 H 2500 V 0 H 0 Z"
         inkscape:connector-curvature="0" /></clipPath><clipPath
       id="clipPath198"
       clipPathUnits="userSpaceOnUse"><path
         id="path196"
         d="M 0,2500 H 2500 V 0 H 0 Z"
         inkscape:connector-curvature="0" /></clipPath><clipPath
       id="clipPath18-4"
       clipPathUnits="userSpaceOnUse"><path
         id="path16-5"
         d="M 0,2500 H 2500 V 0 H 0 Z" /></clipPath><clipPath
       id="clipPath30-5"
       clipPathUnits="userSpaceOnUse"><path
         id="path28-1"
         d="M 0,2500 H 2500 V 0 H 0 Z" /></clipPath><clipPath
       id="clipPath42-7"
       clipPathUnits="userSpaceOnUse"><path
         id="path40-11"
         d="M 0,2500 H 2500 V 0 H 0 Z" /></clipPath><clipPath
       id="clipPath54-5"
       clipPathUnits="userSpaceOnUse"><path
         id="path52-2"
         d="M 0,2500 H 2500 V 0 H 0 Z" /></clipPath><clipPath
       id="clipPath66-76"
       clipPathUnits="userSpaceOnUse"><path
         id="path64-1"
         d="M 0,2500 H 2500 V 0 H 0 Z" /></clipPath><clipPath
       id="clipPath78-4"
       clipPathUnits="userSpaceOnUse"><path
         id="path76-2"
         d="M 0,2500 H 2500 V 0 H 0 Z" /></clipPath><clipPath
       id="clipPath90-3"
       clipPathUnits="userSpaceOnUse"><path
         id="path88-2"
         d="M 0,2500 H 2500 V 0 H 0 Z" /></clipPath><clipPath
       id="clipPath102-2"
       clipPathUnits="userSpaceOnUse"><path
         id="path100-16"
         d="M 0,2500 H 2500 V 0 H 0 Z" /></clipPath><clipPath
       id="clipPath114-8"
       clipPathUnits="userSpaceOnUse"><path
         id="path112-5"
         d="M 0,2500 H 2500 V 0 H 0 Z" /></clipPath><clipPath
       id="clipPath126-7"
       clipPathUnits="userSpaceOnUse"><path
         id="path124-6"
         d="M 0,2500 H 2500 V 0 H 0 Z" /></clipPath><clipPath
       id="clipPath138-1"
       clipPathUnits="userSpaceOnUse"><path
         id="path136-8"
         d="M 0,2500 H 2500 V 0 H 0 Z" /></clipPath><clipPath
       id="clipPath162-9"
       clipPathUnits="userSpaceOnUse"><path
         id="path160-2"
         d="M 0,2500 H 2500 V 0 H 0 Z" /></clipPath><clipPath
       id="clipPath174-7"
       clipPathUnits="userSpaceOnUse"><path
         id="path172-9"
         d="M 0,2500 H 2500 V 0 H 0 Z" /></clipPath><clipPath
       id="clipPath186-5"
       clipPathUnits="userSpaceOnUse"><path
         id="path184-4"
         d="M 0,2500 H 2500 V 0 H 0 Z" /></clipPath><clipPath
       id="clipPath198-3"
       clipPathUnits="userSpaceOnUse"><path
         id="path196-1"
         d="M 0,2500 H 2500 V 0 H 0 Z" /></clipPath><clipPath
       id="clipPath18-2"
       clipPathUnits="userSpaceOnUse"><path
         id="path16-3"
         d="M 0,2500 H 2500 V 0 H 0 Z" /></clipPath><clipPath
       id="clipPath30-3"
       clipPathUnits="userSpaceOnUse"><path
         id="path28-4"
         d="M 0,2500 H 2500 V 0 H 0 Z" /></clipPath><clipPath
       id="clipPath42-1"
       clipPathUnits="userSpaceOnUse"><path
         id="path40-1"
         d="M 0,2500 H 2500 V 0 H 0 Z" /></clipPath><clipPath
       id="clipPath54-3"
       clipPathUnits="userSpaceOnUse"><path
         id="path52-8"
         d="M 0,2500 H 2500 V 0 H 0 Z" /></clipPath><clipPath
       id="clipPath66-7"
       clipPathUnits="userSpaceOnUse"><path
         id="path64-4"
         d="M 0,2500 H 2500 V 0 H 0 Z" /></clipPath><clipPath
       id="clipPath78-2"
       clipPathUnits="userSpaceOnUse"><path
         id="path76-7"
         d="M 0,2500 H 2500 V 0 H 0 Z" /></clipPath><clipPath
       id="clipPath90-7"
       clipPathUnits="userSpaceOnUse"><path
         id="path88-9"
         d="M 0,2500 H 2500 V 0 H 0 Z" /></clipPath><clipPath
       id="clipPath102-3"
       clipPathUnits="userSpaceOnUse"><path
         id="path100-1"
         d="M 0,2500 H 2500 V 0 H 0 Z" /></clipPath><clipPath
       id="clipPath114-9"
       clipPathUnits="userSpaceOnUse"><path
         id="path112-8"
         d="M 0,2500 H 2500 V 0 H 0 Z" /></clipPath><clipPath
       id="clipPath126-6"
       clipPathUnits="userSpaceOnUse"><path
         id="path124-5"
         d="M 0,2500 H 2500 V 0 H 0 Z" /></clipPath><clipPath
       id="clipPath138-0"
       clipPathUnits="userSpaceOnUse"><path
         id="path136-2"
         d="M 0,2500 H 2500 V 0 H 0 Z" /></clipPath><clipPath
       id="clipPath162-8"
       clipPathUnits="userSpaceOnUse"><path
         id="path160-6"
         d="M 0,2500 H 2500 V 0 H 0 Z" /></clipPath><clipPath
       id="clipPath174-0"
       clipPathUnits="userSpaceOnUse"><path
         id="path172-2"
         d="M 0,2500 H 2500 V 0 H 0 Z" /></clipPath><clipPath
       id="clipPath186-4"
       clipPathUnits="userSpaceOnUse"><path
         id="path184-8"
         d="M 0,2500 H 2500 V 0 H 0 Z" /></clipPath><clipPath
       id="clipPath198-6"
       clipPathUnits="userSpaceOnUse"><path
         id="path196-5"
         d="M 0,2500 H 2500 V 0 H 0 Z" /></clipPath></defs><g
     inkscape:label="Слой 1"
     inkscape:groupmode="layer"
     id="layer1"><g
       id="g1"
       transform="matrix(0.22577807,0,0,0.22577807,-6.8691345e-4,-3.5242171e-5)"><g
         transform="matrix(1.3333333,0,0,-1.3333333,-511.29,2894.4942)"
         id="g10"><g
           id="g12"><g
             clip-path="url(#clipPath18)"
             id="g14"><g
               transform="translate(1552.1523,1305.5713)"
               id="g20"><path
                 id="path22"
                 style="fill:#f15a24;fill-opacity:1;fill-rule:nonzero;stroke:none"
                 d="M 0,0 C 0,0 -103.01,35.324 -264.107,34.934 -425.203,35.324 -528.123,0 -528.123,0 -568.682,-685.026 -304.072,-685.924 -264.15,-682.204 -224.207,-685.924 40.559,-685.026 0,0"
                 inkscape:connector-curvature="0" /></g></g></g><g
           id="g24"><g
             clip-path="url(#clipPath30)"
             id="g26"><g
               transform="translate(1552.1523,1304.6353)"
               id="g32"><path
                 id="path34"
                 style="fill:#db481b;fill-opacity:1;fill-rule:nonzero;stroke:none"
                 d="m 0,0 c 0,0 -103.01,35.365 -264.107,35.365 h -0.045 v -718 h 0.002 C -224.207,-685.635 40.559,-685.027 0,0"
                 inkscape:connector-curvature="0" /></g></g></g><g
           id="g48"><g
             clip-path="url(#clipPath54)"
             id="g50"><g
               transform="translate(1531.625,1848)"
               id="g56"><path
                 id="path58"
                 style="fill:#db481b;fill-opacity:1;fill-rule:nonzero;stroke:none"
                 d="m 0,0 c 0,0 -49.625,28 -243.625,30 v -508 c 194,2 243.625,30 243.625,30 107.175,50.397 128.526,154.918 129.94,224 C 128.526,-154.918 107.175,-50.397 0,0"
                 inkscape:connector-curvature="0" /></g></g></g><g
           id="g60"><g
             clip-path="url(#clipPath66)"
             id="g62"><g
               transform="translate(921.5,1706)"
               id="g68"><path
                 id="path70"
                 style="fill:#f15a24;fill-opacity:1;fill-rule:nonzero;stroke:none"
                 d="m 0,0 c 0,0 -24,-57 -6,-148 0,0 -49.5,4 -50,12 0,0 -31.5,49 0,123 0,0 3.5,6 56,13"
                 inkscape:connector-curvature="0" /></g></g></g><g
           id="g72"><g
             clip-path="url(#clipPath78)"
             id="g74"><g
               transform="translate(1653.5,1706)"
               id="g80"><path
                 id="path82"
                 style="fill:#db481b;fill-opacity:1;fill-rule:nonzero;stroke:none"
                 d="m 0,0 c 0,0 24,-57 6,-148 0,0 49.5,4 50,12 0,0 31.5,49 0,123 0,0 -3.5,6 -56,13"
                 inkscape:connector-curvature="0" /></g></g></g><g
           id="g36"><g
             clip-path="url(#clipPath42)"
             id="g38"><g
               transform="translate(1530.625,1847)"
               id="g44"><path
                 id="path46"
                 style="fill:#f15a24;fill-opacity:1;fill-rule:nonzero;stroke:none"
                 d="m 0,0 c 0,0 -49.625,28 -243.625,30 -194,-2 -243.713,-30 -243.713,-30 -107.175,-50.397 -128.563,-154.918 -130.003,-224 1.44,-69.082 22.828,-173.603 130.003,-224 0,0 49.713,-28 243.713,-30 194,2 243.625,30 243.625,30 107.175,50.397 128.526,154.918 129.94,224 C 128.526,-154.918 107.175,-50.397 0,0"
                 inkscape:connector-curvature="0" /></g></g></g><g
           id="g84"><g
             clip-path="url(#clipPath90)"
             id="g86"><g
               transform="translate(1554.9258,1692)"
               id="g92"><path
                 id="path94"
                 style="fill:#333333;fill-opacity:1;fill-rule:nonzero;stroke:none"
                 d="m 0,0 c 11.785,-23.893 15.505,-48.548 15.999,-68.5 -1.075,-43.38 -17.305,-109.014 -98.767,-140.662 0,0 -37.718,-17.582 -185.175,-18.838 -147.458,1.256 -185.244,18.838 -185.244,18.838 -81.462,31.648 -97.719,97.282 -98.814,140.662 0.503,19.951 4.228,44.606 16.016,68.5 z"
                 inkscape:connector-curvature="0" /></g></g></g><g
           id="g96"><g
             clip-path="url(#clipPath102)"
             id="g98"><g
               transform="translate(1555.002,1556)"
               id="g104"><path
                 id="path106"
                 style="fill:#333333;fill-opacity:1;fill-rule:nonzero;stroke:none"
                 d="m 0,0 c 11.784,23.893 15.504,48.548 15.998,68.5 -1.074,43.38 -17.305,109.014 -98.767,140.662 0,0 -37.718,17.582 -185.175,18.838 -147.458,-1.256 -185.244,-18.838 -185.244,-18.838 -81.462,-31.648 -97.719,-97.282 -98.814,-140.662 0.503,-19.951 4.228,-44.606 16.017,-68.5 z"
                 inkscape:connector-curvature="0" /></g></g></g><g
           id="g108"><g
             clip-path="url(#clipPath114)"
             id="g110"><g
               transform="translate(1101.8135,1737.291)"
               id="g116"><path
                 id="path118"
                 style="fill:#1a1a1a;fill-opacity:1;fill-rule:nonzero;stroke:none"
                 d="M 0,0 C 0,0 37.787,16.995 185.244,18.209 332.701,16.995 370.42,0 370.42,0 c 74.382,-27.931 94.374,-83.248 98.106,-124.572 0.356,4.069 0.567,8.01 0.661,11.781 -1.075,43.38 -17.305,109.014 -98.767,140.662 0,0 -37.719,17.582 -185.176,18.838 C 37.787,45.453 0,27.871 0,27.871 -81.462,-3.777 -97.719,-69.411 -98.813,-112.791 c 0.095,-3.771 0.308,-7.712 0.665,-11.781 C -94.397,-83.248 -74.382,-27.931 0,0"
                 inkscape:connector-curvature="0" /></g></g></g><g
           id="g120"><g
             clip-path="url(#clipPath126)"
             id="g122"><g
               transform="translate(1472.2334,1765.1616)"
               id="g128"><path
                 id="path130"
                 style="fill:#1a1a1a;fill-opacity:1;fill-rule:nonzero;stroke:none"
                 d="m 0,0 c 0,0 -37.719,17.583 -185.176,18.838 -0.019,0 -0.038,0 -0.057,0 v -319 h 0.057 c 147.457,1 185.176,18.839 185.176,18.839 81.462,31.647 97.692,97.281 98.767,140.661 C 97.692,-97.282 81.462,-31.647 0,0"
                 inkscape:connector-curvature="0" /></g></g></g><g
           id="g132"><g
             clip-path="url(#clipPath138)"
             id="g134"><g
               transform="translate(1187.3335,1626)"
               id="g140"><path
                 id="path142"
                 style="fill:#f2f2f2;fill-opacity:1;fill-rule:nonzero;stroke:none"
                 d="m 0,0 c 0,-25.773 -20.894,-46.667 -46.667,-46.667 -25.773,0 -46.666,20.894 -46.666,46.667 0,25.773 20.893,46.667 46.666,46.667 C -20.894,46.667 0,25.773 0,0"
                 inkscape:connector-curvature="0" /></g><g
               transform="translate(1482.333,1626)"
               id="g144"><path
                 id="path146"
                 style="fill:#f2f2f2;fill-opacity:1;fill-rule:nonzero;stroke:none"
                 d="m 0,0 c 0,-25.773 -20.893,-46.667 -46.666,-46.667 -25.773,0 -46.667,20.894 -46.667,46.667 0,25.773 20.894,46.667 46.667,46.667 C -20.893,46.667 0,25.773 0,0"
                 inkscape:connector-curvature="0" /></g><g
               transform="rotate(0.30662903,-292578.3,230464.08)"
               id="g148"><path
                 id="path150"
                 style="fill:#f2f2f2;fill-opacity:1;fill-rule:nonzero;stroke:none"
                 d="m 0,0 c 7.004,-29.402 30.232,-51 57.826,-51 27.593,0 50.821,21.598 57.825,51 z"
                 inkscape:connector-curvature="0" /></g><g
               transform="translate(1425.9717,1245.6855)"
               id="g152"><path
                 id="path154"
                 style="fill:#db481b;fill-opacity:1;fill-rule:nonzero;stroke:none"
                 d="m 0,0 c -13.718,-18.071 -32.467,-29.909 -52.425,-34.894 25.706,-27.072 57.766,-55.744 94.218,-83.414 109.488,-83.109 217.071,-125.682 240.292,-95.09 23.221,30.59 -46.713,122.763 -156.201,205.872 C 89.158,20.351 52.653,43.657 19.469,61.182 20.346,40.214 14.008,18.455 0,0"
                 inkscape:connector-curvature="0" /></g></g></g><g
           id="g156"><g
             clip-path="url(#clipPath162)"
             id="g158"><g
               transform="translate(1135.0835,1245.6855)"
               id="g164"><path
                 id="path166"
                 style="fill:#f15a24;fill-opacity:1;fill-rule:nonzero;stroke:none"
                 d="m 0,0 c 13.717,-18.071 32.466,-29.909 52.424,-34.894 -25.706,-27.072 -57.765,-55.744 -94.218,-83.414 -109.488,-83.109 -217.07,-125.682 -240.291,-95.09 -23.221,30.59 46.712,122.763 156.201,205.872 36.725,27.877 73.23,51.183 106.415,68.708 C -20.347,40.214 -14.008,18.455 0,0"
                 inkscape:connector-curvature="0" /></g></g></g><g
           id="g168"><g
             clip-path="url(#clipPath174)"
             id="g170"><g
               transform="translate(1234.6665,1176)"
               id="g176"><path
                 id="path178"
                 style="fill:#333333;fill-opacity:1;fill-rule:nonzero;stroke:none"
                 d="m 0,0 c 0,-28.719 -23.281,-52 -52,-52 -28.719,0 -52,23.281 -52,52 0,28.719 23.281,52 52,52 C -23.281,52 0,28.719 0,0"
                 inkscape:connector-curvature="0" /></g></g></g><g
           id="g180"><g
             clip-path="url(#clipPath186)"
             id="g182"><g
               transform="translate(1177.667,1217)"
               id="g188"><path
                 id="path190"
                 style="fill:#1a1a1a;fill-opacity:1;fill-rule:nonzero;stroke:none"
                 d="M 0,0 C 28.719,0 52,-23.281 52,-52 52,-57.538 51.126,-62.869 49.522,-67.875 54.267,-60.032 57,-50.836 57,-41 57,-12.281 33.719,11 5,11 -18.181,11 -37.811,-4.172 -44.523,-25.125 -35.414,-10.066 -18.883,0 0,0"
                 inkscape:connector-curvature="0" /></g></g></g><g
           id="g192"><g
             clip-path="url(#clipPath198)"
             id="g194"
             style="display:none"><g
               transform="translate(1168.0864,1195.4727)"
               id="g200"><path
                 id="path202"
                 style="fill:#ffffff;fill-opacity:1;fill-rule:nonzero;stroke:none"
                 d="m 0,0 c 1.417,-2.373 2.805,-4.698 4.189,-7.018 -9.654,-6.835 -9.584,-21.162 0.015,-28.136 -1.394,-2.342 -2.794,-4.693 -4.23,-7.105 -0.296,0.163 -0.548,0.27 -0.764,0.426 -4.666,3.399 -7.866,7.848 -9.582,13.366 -0.193,0.621 -0.181,1.056 0.338,1.583 3.279,3.33 3.243,8.254 0.018,11.623 -0.273,0.285 -0.487,0.878 -0.387,1.232 1.619,5.716 4.92,10.262 9.723,13.735 0.114,0.083 0.236,0.155 0.361,0.22 C -0.259,-0.043 -0.184,-0.041 0,0"
                 inkscape:connector-curvature="0" /></g><g
               transform="translate(1207.5605,1172.8574)"
               id="g204"><path
                 id="path206"
                 style="fill:#ffffff;fill-opacity:1;fill-rule:nonzero;stroke:none"
                 d="m 0,0 c -0.413,-5.444 -2.164,-10.053 -5.317,-14.13 -0.13,-0.167 -0.281,-0.319 -0.397,-0.495 -0.928,-1.414 -1.929,-2.036 -3.875,-1.632 -3.798,0.789 -7.699,-1.967 -8.79,-5.834 -0.217,-0.766 -0.561,-1.076 -1.312,-1.238 -5.484,-1.184 -10.803,-0.735 -15.961,1.495 -0.258,0.111 -0.513,0.234 -0.762,0.366 -0.087,0.046 -0.152,0.134 -0.282,0.253 1.335,2.392 2.671,4.785 4.03,7.22 2.329,-1.013 4.669,-1.568 7.143,-1.564 8.555,0.015 15.654,6.045 16.96,14.5 0.132,0.852 0.415,1.098 1.256,1.079 C -4.918,-0.036 -2.528,0 0,0"
                 inkscape:connector-curvature="0" /></g><g
               transform="translate(1207.4907,1175.9609)"
               id="g208"><path
                 id="path210"
                 style="fill:#ffffff;fill-opacity:1;fill-rule:nonzero;stroke:none"
                 d="m 0,0 h -8.295 c -0.734,5.688 -3.457,10.247 -8.526,13.185 -5.05,2.925 -10.325,3.005 -15.783,0.751 -1.344,2.405 -2.679,4.794 -4.064,7.272 0.371,0.191 0.667,0.366 0.98,0.503 5.254,2.279 10.67,2.771 16.256,1.495 0.632,-0.144 0.911,-0.433 1.087,-1.07 1.234,-4.449 5.598,-6.941 10.064,-5.754 0.594,0.157 0.94,0.07 1.365,-0.381 3.99,-4.236 6.26,-9.253 6.912,-15.018 C 0.027,0.712 0,0.435 0,0"
                 inkscape:connector-curvature="0" /></g><g
               transform="translate(1202.9321,1148.4443)"
               id="g212"><path
                 id="path214"
                 style="fill:#ffffff;fill-opacity:1;fill-rule:nonzero;stroke:none"
                 d="m 0,0 c -0.059,-3.244 -2.703,-5.857 -5.904,-5.836 -3.251,0.022 -5.92,2.748 -5.865,5.991 0.057,3.29 2.73,5.873 6.019,5.815 C -2.536,5.912 0.058,3.219 0,0"
                 inkscape:connector-curvature="0" /></g><g
               transform="translate(1152.2441,1180.2471)"
               id="g216"><path
                 id="path218"
                 style="fill:#ffffff;fill-opacity:1;fill-rule:nonzero;stroke:none"
                 d="m 0,0 c 3.295,0.016 5.937,-2.612 5.924,-5.894 -0.011,-3.237 -2.611,-5.845 -5.849,-5.87 -3.269,-0.024 -5.934,2.631 -5.922,5.902 C -5.836,-2.616 -3.242,-0.016 0,0"
                 inkscape:connector-curvature="0" /></g><g
               transform="translate(1191.1616,1200.3154)"
               id="g220"
               style="display:inline"><path
                 id="path222"
                 style="display:inline;fill:#ffffff;fill-opacity:1;fill-rule:nonzero;stroke:none"
                 d="M 0,0 C 0.068,3.249 2.706,5.817 5.937,5.782 9.237,5.745 11.831,3.087 11.771,-0.199 11.712,-3.469 8.976,-6.098 5.737,-5.995 2.504,-5.893 -0.067,-3.206 0,0"
                 inkscape:connector-curvature="0" /></g></g><path
             fill="#ffffff"
             d="m 1156.1478,1165.1326 a 9.7707728,9.7707728 0 1 1 0,19.5415 9.7707728,9.7707728 0 0 1 0,-19.5415 m 40.6942,21.4249 a 9.7701185,9.7701185 0 1 1 0,19.5402 9.7701185,9.7701185 0 0 1 0,-19.5402 m -18.6564,-36.8037 a 23.792515,23.792515 0 0 0 -16.2266,12.3778 14.070424,14.070424 0 0 0 -8.355,-1.0254 c 4.0003,-9.826 12.4867,-16.9624 22.9019,-19.1951 2.2845,-0.4905 4.6145,-0.7268 6.9407,-0.7139 a 13.979564,13.979564 0 0 0 -2.8611,8.1697 23.364172,23.364172 0 0 0 -2.396,0.3893 z m 16.4561,-9.822 a 9.7701185,9.7701185 0 1 1 0,19.5402 9.7701185,9.7701185 0 0 1 0,-19.5402 m 13.5981,13.3577 a 32.060838,32.060838 0 0 1 6.207,13.1697 32.034875,32.034875 0 0 1 -4.6066,24.3377 14.070424,14.070424 0 0 0 -5.4943,-6.4355 23.909337,23.909337 0 0 0 2.2584,-16.2226 23.883376,23.883376 0 0 0 -3.0375,-7.5714 14.018505,14.018505 0 0 0 4.6755,-7.2817 z m -52.846,35.6252 q 0.375,0.019 0.7437,0.019 1.4838,0 2.9491,-0.3155 c 1.5939,-0.3415 3.0906,-0.9437 4.4627,-1.7977 a 23.844435,23.844435 0 0 0 19.1871,10.2633 q 0.062,1.1109 0.2926,2.2 a 14.148303,14.148303 0 0 0 2.6715,5.7243 c -12.2896,0.9734 -24.229,-5.3686 -30.3098,-16.0953 z"
             id="path5"
             style="display:inline;fill:#ffffff;fill-opacity:1;stroke-width:1.298" /></g></g></g></g></svg>
