<?xml version="1.0" encoding="UTF-8" standalone="no"?>
<svg
   width="100"
   height="100"
   fill="none"
   version="1.1"
   id="svg5"
   sodipodi:docname="ubuntu_desktop.svg"
   inkscape:version="1.4.2 (f4327f4, 2025-05-13)"
   xmlns:inkscape="http://www.inkscape.org/namespaces/inkscape"
   xmlns:sodipodi="http://sodipodi.sourceforge.net/DTD/sodipodi-0.dtd"
   xmlns="http://www.w3.org/2000/svg"
   xmlns:svg="http://www.w3.org/2000/svg">
  <defs
     id="defs5" />
  <sodipodi:namedview
     id="namedview5"
     pagecolor="#505050"
     bordercolor="#eeeeee"
     borderopacity="1"
     inkscape:showpageshadow="0"
     inkscape:pageopacity="0"
     inkscape:pagecheckerboard="0"
     inkscape:deskcolor="#505050"
     showgrid="false"
     inkscape:zoom="4.209073"
     inkscape:cx="61.414948"
     inkscape:cy="69.373946"
     inkscape:current-layer="svg5" />
  <path
     fill="#ffffff"
     d="m 18.960718,59.939125 a 12.320587,12.320587 0 1 0 0,-24.641174 12.320587,12.320587 0 0 0 0,24.641174 M 70.274266,32.923036 a 12.319769,12.319769 0 1 0 0,-24.639538 12.319769,12.319769 0 0 0 0,24.639538 M 46.74935,79.331263 A 30.00151,30.00151 0 0 1 26.288419,63.723277 17.7423,17.7423 0 0 1 15.7527,65.016304 c 5.044444,12.390149 15.745474,21.388965 28.878704,24.204164 2.880669,0.618689 5.818624,0.916576 8.751668,0.900209 A 17.644096,17.644096 0 0 1 49.775689,79.819013 29.461384,29.461384 0 0 1 46.754261,79.32799 Z m 20.750635,12.385239 a 12.319769,12.319769 0 1 0 0,-24.639538 12.319769,12.319769 0 0 0 0,24.639538 M 84.646511,74.872774 a 40.427566,40.427566 0 0 0 7.826908,-16.606401 40.394832,40.394832 0 0 0 -5.808803,-30.688942 17.7423,17.7423 0 0 1 -6.928336,8.114975 30.148817,30.148817 0 0 1 2.847934,20.456021 30.116082,30.116082 0 0 1 -3.82998,9.547126 17.676831,17.676831 0 0 1 5.895551,9.182131 z M 18.00977,29.95071 q 0.473019,-0.02619 0.937854,-0.02455 1.870798,0 3.718681,0.397729 c 2.009921,0.430464 3.897087,1.189913 5.627125,2.26689 A 30.06698,30.06698 0 0 1 52.487773,19.649045 q 0.07856,-1.401052 0.369904,-2.77428 A 17.840505,17.840505 0 0 1 56.226096,9.6567259 C 40.729407,8.4291682 25.67464,16.426297 18.006496,29.952346 Z"
     id="path5"
     style="stroke-width:1.63674" />
</svg>
